<?xml version="1.0" encoding="utf-8"?>
<svg version="1.1" xmlns:xlink="http://www.w3.org/1999/xlink" width="300px" height="170px" xmlns="http://www.w3.org/2000/svg">
  <g transform="matrix(1 0 0 1 -93 -63 )">
    <path d="M 93 63  L 393 63  L 393 233  L 93 233  L 93 63  " fill-rule="nonzero" fill="#cccccc" stroke="none" />
    <path d="M 105 75  L 381 75  L 381 221  L 105 221  L 105 75  " fill-rule="nonzero" fill="#ffffff" stroke="none" />
    <path d="M 261.75 114  C 254.61 114  249 108.39  249 101.25  C 249 94.11  254.61 88.5  261.75 88.5  C 268.89 88.5  274.5 94.11  274.5 101.25  C 274.5 108.39  268.89 114  261.75 114  " fill-rule="nonzero" fill="#cccccc" stroke="none" />
    <path d="M 110 217  L 110 141.65  L 176.75 107.4  L 270.2 170.42  L 323.6 127.95  L 377 170.42  L 377 217  L 110 217  " fill-rule="nonzero" fill="#169bd5" stroke="none" />
  </g>
</svg>